<svg width="172" height="172" viewBox="0 0 172 172" fill="none" xmlns="http://www.w3.org/2000/svg">
<rect width="172" height="172" rx="10" fill="url(#paint0_linear_786_15)"/>
<rect x="8.5" y="8.5" width="155" height="155" rx="6.5" fill="#F8F9FA" stroke="#E4E7EB"/>
<path d="M83.976 52.824L38.184 111.768V93.432L69.48 52.824H83.976ZM41.064 52.824V123H28.776V52.824H41.064ZM52.2 92.28L60.072 81.72L84.264 123H70.056L52.2 92.28ZM105.752 123H93.4635V52.824H120.248C128.184 52.824 134.36 54.744 138.776 58.584C143.256 62.424 145.496 67.8 145.496 74.712C145.496 79.384 144.408 83.384 142.232 86.712C140.12 89.976 136.984 92.472 132.824 94.2L146.168 123H132.728L120.824 96.792H105.752V123ZM105.752 63.768V85.944H120.248C124.152 85.944 127.192 84.952 129.368 82.968C131.544 80.984 132.632 78.232 132.632 74.712C132.632 71.192 131.544 68.504 129.368 66.648C127.192 64.728 124.152 63.768 120.248 63.768H105.752Z" fill="#373F49"/>
<defs>
<linearGradient id="paint0_linear_786_15" x1="86" y1="0" x2="86" y2="172" gradientUnits="userSpaceOnUse">
<stop stop-color="#F5F6F8"/>
<stop offset="1" stop-color="#E4E7EB"/>
</linearGradient>
</defs>
</svg>
