<svg width="368" height="368" viewBox="0 0 368 368" fill="none" xmlns="http://www.w3.org/2000/svg">
<rect width="368" height="368" fill="url(#paint0_linear_795_7)"/>
<path d="M63.992 166.544C63.992 161.083 65.4 156.261 68.216 152.08C71.032 147.899 74.9147 144.656 79.864 142.352C84.8987 139.963 90.7013 138.768 97.272 138.768C103.587 138.768 109.048 139.877 113.656 142.096C118.349 144.315 121.976 147.472 124.536 151.568C127.181 155.664 128.589 160.528 128.76 166.16H112.376C112.205 162.149 110.755 159.035 108.024 156.816C105.293 154.512 101.624 153.36 97.016 153.36C91.9813 153.36 87.928 154.512 84.856 156.816C81.8693 159.035 80.376 162.107 80.376 166.032C80.376 169.36 81.272 172.005 83.064 173.968C84.9413 175.845 87.8427 177.253 91.768 178.192L106.488 181.52C114.509 183.227 120.483 186.171 124.408 190.352C128.333 194.448 130.296 199.995 130.296 206.992C130.296 212.709 128.888 217.744 126.072 222.096C123.256 226.448 119.245 229.819 114.04 232.208C108.92 234.512 102.904 235.664 95.992 235.664C89.4213 235.664 83.6613 234.555 78.712 232.336C73.7627 230.032 69.88 226.832 67.064 222.736C64.3333 218.64 62.8827 213.819 62.712 208.272H79.096C79.1813 212.197 80.7173 215.312 83.704 217.616C86.776 219.835 90.9147 220.944 96.12 220.944C101.581 220.944 105.891 219.835 109.048 217.616C112.291 215.312 113.912 212.283 113.912 208.528C113.912 205.285 113.059 202.725 111.352 200.848C109.645 198.885 106.872 197.52 103.032 196.752L88.184 193.424C80.248 191.717 74.232 188.645 70.136 184.208C66.04 179.685 63.992 173.797 63.992 166.544ZM203.23 234H145.118V140.432H203.23V155.536H155.742L161.502 150.288V179.6H198.878V194.064H161.502V224.144L155.742 218.896H203.23V234ZM260.42 235.536C251.289 235.536 243.353 233.573 236.612 229.648C229.956 225.637 224.751 220.048 220.996 212.88C217.327 205.627 215.492 197.093 215.492 187.28C215.492 177.552 217.369 169.061 221.124 161.808C224.964 154.555 230.34 148.923 237.252 144.912C244.164 140.901 252.143 138.896 261.188 138.896C268.612 138.896 275.268 140.261 281.156 142.992C287.044 145.723 291.908 149.563 295.748 154.512C299.588 159.376 302.02 165.179 303.044 171.92H285.764C284.143 166.459 281.113 162.235 276.676 159.248C272.324 156.176 266.991 154.64 260.676 154.64C255.044 154.64 250.095 155.963 245.828 158.608C241.647 161.253 238.404 165.008 236.1 169.872C233.796 174.736 232.644 180.539 232.644 187.28C232.644 193.765 233.796 199.483 236.1 204.432C238.404 209.296 241.647 213.093 245.828 215.824C250.095 218.469 255.044 219.792 260.676 219.792C267.076 219.792 272.537 218.256 277.06 215.184C281.668 212.112 284.74 207.973 286.276 202.768H303.3C302.105 209.253 299.503 214.971 295.492 219.92C291.567 224.869 286.575 228.709 280.516 231.44C274.543 234.171 267.844 235.536 260.42 235.536Z" fill="#E4E7EB"/>
<defs>
<linearGradient id="paint0_linear_795_7" x1="0" y1="0" x2="368" y2="368" gradientUnits="userSpaceOnUse">
<stop stop-color="#373D44"/>
<stop offset="1" stop-color="#191C20"/>
</linearGradient>
</defs>
</svg>
