<svg width="111" height="111" viewBox="0 0 111 111" fill="none" xmlns="http://www.w3.org/2000/svg">
<rect width="111" height="111" fill="url(#paint0_linear_791_10)"/>
<path d="M84.2617 45.9867H76.5458H68.1474C67.7347 45.9867 67.3091 45.8474 66.9145 45.6475C65.7917 45.0789 65.2044 43.9345 64.8076 42.7955C63.5339 39.1408 61.6472 33.5507 61.1158 31.3037C60.4908 28.6607 62.5481 28 63.6549 28H90.0225C91.4401 28 91.905 29.2589 91.9913 30.3491C92.0414 30.983 91.8688 31.6056 91.6542 32.2084C90.1994 36.2935 87.6723 43.2931 87.0928 44.5185C86.6904 45.3694 86.1042 45.7585 85.6163 45.9115C85.185 46.0467 84.7162 45.9867 84.2617 45.9867Z" fill="#F8F9FA"/>
<path d="M49.1607 28H27.3883C26.458 28 25.7057 28.5055 25.2126 29.0098C24.8056 29.4262 24.5864 29.9718 24.3999 30.5177L20.4252 42.1514C19.0326 46.227 21.3923 47.1202 22.7462 47.0572H51.3722C52.6136 47.0572 52.859 48.7573 52.8078 50.1117C52.7848 50.7179 52.6238 51.3038 52.418 51.8763C49.7996 59.1616 44.8249 73.186 43.6355 77.2469C42.6503 80.6105 43.7231 81.7275 44.7873 81.9483C45.2998 82.0546 45.8313 81.9641 46.3552 81.9641H60.0761C60.4751 81.9641 60.8849 81.8594 61.2742 81.7009C62.6688 81.133 63.4125 79.7227 63.8718 78.3183C64.4688 76.4921 65.1726 74.3228 65.4919 73.2845C65.975 71.9883 66.0307 70.9864 65.9887 70.233C65.9479 69.5 65.7602 68.7851 65.5234 68.0883C61.2265 55.4468 53.1776 31.7322 52.7262 30.2642C52.4017 29.2088 51.5539 28.5839 50.8307 28.2604C50.3122 28.0284 49.7312 28 49.1607 28Z" fill="#F8F9FA"/>
<defs>
<linearGradient id="paint0_linear_791_10" x1="0" y1="0" x2="111" y2="111" gradientUnits="userSpaceOnUse">
<stop stop-color="#383E45"/>
<stop offset="1" stop-color="#181B1F"/>
</linearGradient>
</defs>
</svg>
